<svg xmlns="http://www.w3.org/2000/svg" width="20" height="20" viewBox="0 0 20 20">
    <path data-name="사각형 2001" style="fill:none" d="M0 0h20v20H0z"/>
    <path data-name="패스 639" d="M1.947 0h15.232l2.061 10.078H0z" transform="translate(0 9.658)" style="fill:#eeedfd"/>
    <path data-name="패스 640" d="M8141 308.929a4.87 4.87 0 0 0 3.979 0 3.508 3.508 0 0 1 3.437 0v5.04s-1.266-1.072-3.437 0a4.374 4.374 0 0 1-3.979 0z" transform="translate(-8137.392 -306.463)" style="fill:#7367f0"/>
    <path data-name="사각형 2002" transform="translate(3.121 2.295)" style="fill:#7367f0" d="M0 0h.916v9.162H0z"/>
    <path data-name="패스 641" d="M8141 308.929a4.87 4.87 0 0 0 3.979 0 3.508 3.508 0 0 1 3.437 0v5.04s-1.266-1.072-3.437 0a4.374 4.374 0 0 1-3.979 0z" transform="translate(-8130.406 -300.016)" style="fill:#7367f0"/>
    <path data-name="사각형 2003" transform="translate(10.107 8.742)" style="fill:#7367f0" d="M0 0h.916v9.162H0z"/>
    <text data-name="1" transform="translate(5 8)" style="fill:#fff;font-size:5px;font-family:NotoSansCJKkr-Regular,Noto Sans CJK KR"><tspan x="0" y="0">1</tspan></text>
    <text data-name="2" transform="translate(12 14)" style="fill:#fff;font-size:5px;font-family:NotoSansCJKkr-Regular,Noto Sans CJK KR"><tspan x="0" y="0">2</tspan></text>
    <path data-name="사각형 2120" style="fill:none" d="M0 0h20v20H0z"/>
</svg>
