<svg xmlns="http://www.w3.org/2000/svg" width="20" height="20" viewBox="0 0 20 20">
    <path data-name="사각형 2001" transform="translate(2.146 4.314)" style="fill:none" d="M0 0h15.025v15.025H0z"/>
    <path data-name="패스 632" d="M8145.326 314.688h3.654l1.388 2.776-1.388 2.822h-3.654l-1.389-2.822z" transform="translate(-8137.053 -307.227)" style="fill:#7367f0"/>
    <path data-name="패스 633" d="M8145.326 314.688h3.654l1.388 2.776-1.388 2.822h-3.654l-1.389-2.822z" transform="translate(-8142.05 -310.026)" style="fill:#f4f2ff"/>
    <path data-name="패스 634" d="M8145.326 314.688h3.654l1.388 2.776-1.388 2.822h-3.654l-1.389-2.822z" transform="translate(-8142.05 -304.405)" style="fill:#a9a1ff"/>
    <path data-name="패스 635" d="M8145.326 314.688h3.654l1.388 2.776-1.388 2.822h-3.654l-1.389-2.822z" transform="translate(-8137.053 -301.606)" style="fill:#f4f2ff"/>
    <path data-name="패스 636" d="M8145.326 314.688h3.654l1.388 2.776-1.388 2.822h-3.654l-1.389-2.822z" transform="translate(-8132.149 -309.91)" style="fill:#a9a1ff"/>
    <path data-name="패스 637" d="M8145.326 314.688h3.654l1.388 2.776-1.388 2.822h-3.654l-1.389-2.822z" transform="translate(-8132.149 -304.313)" style="fill:#d1ccff"/>
    <path data-name="패스 638" d="M8145.326 314.688h3.654l1.388 2.776-1.388 2.822h-3.654l-1.389-2.822z" transform="translate(-8137.053 -312.825)" style="fill:#d1ccff"/>
    <path data-name="사각형 2122" style="fill:none" d="M0 0h20v20H0z"/>
</svg>
