<svg xmlns="http://www.w3.org/2000/svg" width="20" height="20" viewBox="0 0 20 20">
    <path data-name="사각형 2001" transform="translate(2 3)" style="fill:none" d="M0 0h17v17H0z"/>
    <path data-name="패스 628" d="M8665.875 1160.911h13.613s1.746 5.995 0 9.454-6.475 4.384-6.984 4.384-4.973-.925-6.629-4.384 0-9.454 0-9.454z" transform="translate(-8662.88 -1156.85)" style="fill:#7367f0"/>
    <path data-name="패스 629" d="M3.9.007c-.391-.132-1.4 1.57-1.4 1.57S.506.505.261.82s1.1 2.113 1.1 2.113S-.168 4.234.015 4.478 2.1 3.909 2.1 3.909s1.144 1.819 1.594 1.707.2-2.154.2-2.154S6.1 3.248 6.1 2.933 3.9 2.2 3.9 2.2 4.285.139 3.9.007z" transform="rotate(-180 6.342 3.833)" style="fill:#ffd91a"/>
    <path data-name="패스 630" d="M8671.881 1169.283c0-.147.1-3.11-1.479-3.518a2.129 2.129 0 0 0-2.753 2.549c.459 1.784 3.161 1.784 3.161 1.784s4.078 4.742 4.333 4.742c0 0 .919.281 1.225 0s0-1.122 0-1.122z" transform="translate(-8663.818 -1159.095)" style="fill:#fff"/>
    <path data-name="패스 631" d="M4.24 3.522c0-.147.1-3.11-1.479-3.518-.407-.105.621 1.784 0 1.962 0 0-1.945-1.622-2.23-1.38s1.5 2.4 1.5 2.4C1.91 3.174-.141 1.974.008 2.554c.458 1.784 3.16 1.784 3.16 1.784S7.247 9.08 7.5 9.08c0 0 .917.28 1.223 0s0-1.122 0-1.122z" transform="rotate(90 4.567 11.326)" style="fill:#fff"/>
    <path data-name="사각형 2121" style="fill:none" d="M0 0h20v20H0z"/>
</svg>
